<mxfile host="Electron" modified="2023-09-25T14:06:32.556Z" agent="Mozilla/5.0 (Windows NT 10.0; Win64; x64) AppleWebKit/537.36 (KHTML, like Gecko) draw.io/21.7.5 Chrome/114.0.5735.289 Electron/25.8.1 Safari/537.36" etag="gFpj6HyST8RAg52a2WFH" version="21.7.5" type="device">
  <diagram name="Page-1" id="9Ll_W1eB-tSDHPHh5bfT">
    <mxGraphModel dx="1007" dy="592" grid="1" gridSize="10" guides="1" tooltips="1" connect="1" arrows="1" fold="1" page="1" pageScale="1" pageWidth="850" pageHeight="1100" math="0" shadow="0">
      <root>
        <mxCell id="0" />
        <mxCell id="1" parent="0" />
        <mxCell id="ugVXthvSu3YYW_4QquD_-1" value="" style="rounded=0;whiteSpace=wrap;html=1;" parent="1" vertex="1">
          <mxGeometry x="265" y="110" width="310" height="560" as="geometry" />
        </mxCell>
        <mxCell id="ugVXthvSu3YYW_4QquD_-5" style="edgeStyle=orthogonalEdgeStyle;rounded=0;orthogonalLoop=1;jettySize=auto;html=1;exitX=1;exitY=0.3333333333333333;exitDx=0;exitDy=0;exitPerimeter=0;entryX=0;entryY=0.5;entryDx=0;entryDy=0;" parent="1" source="ugVXthvSu3YYW_4QquD_-2" target="ugVXthvSu3YYW_4QquD_-4" edge="1">
          <mxGeometry relative="1" as="geometry" />
        </mxCell>
        <mxCell id="ugVXthvSu3YYW_4QquD_-2" value="User" style="shape=umlActor;verticalLabelPosition=bottom;verticalAlign=top;html=1;outlineConnect=0;" parent="1" vertex="1">
          <mxGeometry x="85" y="240" width="30" height="60" as="geometry" />
        </mxCell>
        <mxCell id="ugVXthvSu3YYW_4QquD_-4" value="Take Test" style="ellipse;whiteSpace=wrap;html=1;" parent="1" vertex="1">
          <mxGeometry x="378" y="190" width="85" height="30" as="geometry" />
        </mxCell>
        <mxCell id="ugVXthvSu3YYW_4QquD_-8" style="edgeStyle=orthogonalEdgeStyle;rounded=0;orthogonalLoop=1;jettySize=auto;html=1;exitX=0;exitY=0.3333333333333333;exitDx=0;exitDy=0;exitPerimeter=0;entryX=1;entryY=0.5;entryDx=0;entryDy=0;" parent="1" source="ugVXthvSu3YYW_4QquD_-6" target="ugVXthvSu3YYW_4QquD_-7" edge="1">
          <mxGeometry relative="1" as="geometry" />
        </mxCell>
        <mxCell id="ugVXthvSu3YYW_4QquD_-10" style="edgeStyle=orthogonalEdgeStyle;rounded=0;orthogonalLoop=1;jettySize=auto;html=1;exitX=0.5;exitY=0.5;exitDx=0;exitDy=0;exitPerimeter=0;entryX=0.5;entryY=0;entryDx=0;entryDy=0;" parent="1" source="ugVXthvSu3YYW_4QquD_-6" target="ugVXthvSu3YYW_4QquD_-9" edge="1">
          <mxGeometry relative="1" as="geometry">
            <mxPoint x="713" y="270" as="sourcePoint" />
            <mxPoint x="378" y="410" as="targetPoint" />
            <Array as="points">
              <mxPoint x="713" y="260" />
              <mxPoint x="713" y="360" />
              <mxPoint x="415" y="360" />
            </Array>
          </mxGeometry>
        </mxCell>
        <mxCell id="ugVXthvSu3YYW_4QquD_-13" style="edgeStyle=orthogonalEdgeStyle;rounded=0;orthogonalLoop=1;jettySize=auto;html=1;exitX=0;exitY=1;exitDx=0;exitDy=0;exitPerimeter=0;entryX=1;entryY=0.5;entryDx=0;entryDy=0;" parent="1" source="ugVXthvSu3YYW_4QquD_-6" target="ugVXthvSu3YYW_4QquD_-14" edge="1">
          <mxGeometry relative="1" as="geometry">
            <mxPoint x="725" y="500" as="targetPoint" />
          </mxGeometry>
        </mxCell>
        <mxCell id="ugVXthvSu3YYW_4QquD_-16" style="edgeStyle=orthogonalEdgeStyle;rounded=0;orthogonalLoop=1;jettySize=auto;html=1;exitX=1;exitY=1;exitDx=0;exitDy=0;exitPerimeter=0;entryX=1;entryY=0.5;entryDx=0;entryDy=0;" parent="1" source="ugVXthvSu3YYW_4QquD_-6" target="ugVXthvSu3YYW_4QquD_-15" edge="1">
          <mxGeometry relative="1" as="geometry" />
        </mxCell>
        <mxCell id="ugVXthvSu3YYW_4QquD_-6" value="Test Setter" style="shape=umlActor;verticalLabelPosition=bottom;verticalAlign=top;html=1;outlineConnect=0;" parent="1" vertex="1">
          <mxGeometry x="735" y="230" width="30" height="60" as="geometry" />
        </mxCell>
        <mxCell id="ugVXthvSu3YYW_4QquD_-7" value="Select questions" style="ellipse;whiteSpace=wrap;html=1;" parent="1" vertex="1">
          <mxGeometry x="355" y="260" width="126" height="40" as="geometry" />
        </mxCell>
        <mxCell id="ugVXthvSu3YYW_4QquD_-18" value="&amp;lt;&amp;lt;Include&amp;gt;&amp;gt;" style="edgeStyle=orthogonalEdgeStyle;rounded=0;orthogonalLoop=1;jettySize=auto;html=1;exitX=0;exitY=1;exitDx=0;exitDy=0;entryX=0;entryY=0.5;entryDx=0;entryDy=0;" parent="1" edge="1">
          <mxGeometry x="0.3435" y="32" relative="1" as="geometry">
            <mxPoint x="370.57359312880726" y="434.14213562373084" as="sourcePoint" />
            <mxPoint x="353" y="605" as="targetPoint" />
            <Array as="points">
              <mxPoint x="333" y="434" />
              <mxPoint x="333" y="605" />
            </Array>
            <mxPoint as="offset" />
          </mxGeometry>
        </mxCell>
        <mxCell id="ugVXthvSu3YYW_4QquD_-9" value="Rating" style="ellipse;whiteSpace=wrap;html=1;" parent="1" vertex="1">
          <mxGeometry x="355" y="400" width="120" height="40" as="geometry" />
        </mxCell>
        <mxCell id="ugVXthvSu3YYW_4QquD_-12" value="&amp;lt;&amp;lt;include&amp;gt;&amp;gt;" style="edgeStyle=orthogonalEdgeStyle;rounded=0;orthogonalLoop=1;jettySize=auto;html=1;exitX=0.5;exitY=1;exitDx=0;exitDy=0;entryX=0;entryY=0.5;entryDx=0;entryDy=0;" parent="1" source="ugVXthvSu3YYW_4QquD_-4" target="ugVXthvSu3YYW_4QquD_-9" edge="1">
          <mxGeometry x="0.2839" y="40" relative="1" as="geometry">
            <Array as="points">
              <mxPoint x="421" y="240" />
              <mxPoint x="295" y="240" />
              <mxPoint x="295" y="420" />
            </Array>
            <mxPoint as="offset" />
          </mxGeometry>
        </mxCell>
        <mxCell id="ugVXthvSu3YYW_4QquD_-17" style="edgeStyle=orthogonalEdgeStyle;rounded=0;orthogonalLoop=1;jettySize=auto;html=1;exitX=0.5;exitY=1;exitDx=0;exitDy=0;entryX=0.5;entryY=0;entryDx=0;entryDy=0;" parent="1" source="ugVXthvSu3YYW_4QquD_-14" target="ugVXthvSu3YYW_4QquD_-15" edge="1">
          <mxGeometry relative="1" as="geometry" />
        </mxCell>
        <mxCell id="ugVXthvSu3YYW_4QquD_-19" value="&amp;lt;&amp;lt;include&amp;gt;&amp;gt;" style="edgeLabel;html=1;align=center;verticalAlign=middle;resizable=0;points=[];" parent="ugVXthvSu3YYW_4QquD_-17" vertex="1" connectable="0">
          <mxGeometry x="-0.1108" y="3" relative="1" as="geometry">
            <mxPoint x="27" y="3" as="offset" />
          </mxGeometry>
        </mxCell>
        <mxCell id="ugVXthvSu3YYW_4QquD_-14" value="Verify user credibility" style="ellipse;whiteSpace=wrap;html=1;" parent="1" vertex="1">
          <mxGeometry x="351.5" y="480" width="127" height="40" as="geometry" />
        </mxCell>
        <mxCell id="ugVXthvSu3YYW_4QquD_-15" value="Generate certificate" style="ellipse;whiteSpace=wrap;html=1;" parent="1" vertex="1">
          <mxGeometry x="355" y="580" width="120" height="50" as="geometry" />
        </mxCell>
        <mxCell id="ugVXthvSu3YYW_4QquD_-20" value="Online Certification Examination System" style="text;html=1;strokeColor=none;fillColor=none;align=center;verticalAlign=middle;whiteSpace=wrap;rounded=0;" parent="1" vertex="1">
          <mxGeometry x="290" y="80" width="260" height="30" as="geometry" />
        </mxCell>
        <mxCell id="ugVXthvSu3YYW_4QquD_-21" value="Rahul Siloniya&lt;br&gt;IT A1&lt;br&gt;12113018" style="text;html=1;strokeColor=none;fillColor=none;align=center;verticalAlign=middle;whiteSpace=wrap;rounded=0;" parent="1" vertex="1">
          <mxGeometry x="680" y="990" width="120" height="50" as="geometry" />
        </mxCell>
      </root>
    </mxGraphModel>
  </diagram>
</mxfile>
